<svg xmlns:xlink="http://www.w3.org/1999/xlink" xmlns="http://www.w3.org/2000/svg" width="22" height="22" viewBox="0 0 22 22" fill="none"><path d="M2.75 0H19.25C20.7668 0 22 1.2332 22 2.75V15.125C22 16.6418 20.7668 17.875 19.25 17.875H15.125V21.4844C15.125 21.7895 14.8758 22 14.6094 22C14.5062 22 14.3988 21.9699 14.3043 21.8969L8.9375 17.875H2.75C1.2332 17.875 0 16.6418 0 15.125V2.75C0 1.2332 1.2332 0 2.75 0ZM1.375 15.125C1.375 15.8813 1.99375 16.5 2.75 16.5H9.39727L9.7625 16.775L13.75 19.7656V16.5H19.25C20.0063 16.5 20.625 15.8813 20.625 15.125V2.75C20.625 1.99375 20.0063 1.375 19.25 1.375H2.75C1.99375 1.375 1.375 1.99375 1.375 2.75V15.125ZM16.5 7.90625C17.0715 7.90625 17.5312 8.36602 17.5312 8.9375C17.5312 9.50898 17.0715 9.96875 16.5 9.96875C15.9285 9.96875 15.4688 9.50898 15.4688 8.9375C15.4688 8.36602 15.9285 7.90625 16.5 7.90625ZM11 7.90625C11.5715 7.90625 12.0312 8.36602 12.0312 8.9375C12.0312 9.50898 11.5715 9.96875 11 9.96875C10.4285 9.96875 9.96875 9.50898 9.96875 8.9375C9.96875 8.36602 10.4285 7.90625 11 7.90625ZM5.5 7.90625C6.07148 7.90625 6.53125 8.36602 6.53125 8.9375C6.53125 9.50898 6.07148 9.96875 5.5 9.96875C4.92852 9.96875 4.46875 9.50898 4.46875 8.9375C4.46875 8.36602 4.92852 7.90625 5.5 7.90625Z" fill="#079211"></path></svg>