<svg xmlns:xlink="http://www.w3.org/1999/xlink" xmlns="http://www.w3.org/2000/svg" width="23" height="23" viewBox="0 0 23 23" fill="none"><g clip-path="url(#clip0)" fill="none"><path d="M2.27836 12.9375H12.9379V2.27799C12.9379 1.88133 13.2604 1.5498 13.6449 1.5498C13.6759 1.5498 13.7078 1.55205 13.7397 1.55654C19.0886 2.31213 23.1783 6.98221 22.9945 12.5813C22.8117 18.1529 18.1529 22.8113 12.5816 22.9942C12.4608 22.9982 12.3395 23 12.2191 23C6.78178 23 2.29633 18.9723 1.55691 13.7389C1.49717 13.3144 1.8498 12.9375 2.27836 12.9375ZM12.2191 21.5625C12.3238 21.5625 12.4294 21.5607 12.5345 21.5571C17.3519 21.399 21.3998 17.3511 21.5579 12.5337C21.7048 8.04191 18.6677 4.14314 14.3754 3.13689V14.375H3.13816C4.12106 18.5271 7.88461 21.5625 12.2191 21.5625ZM10.0269 0.00179687C10.0427 0.000449219 10.0584 0 10.0737 0C10.4627 0 10.7816 0.334219 10.7816 0.729082V10.7812H0.729454C0.318869 10.7812 -0.0261326 10.4358 0.00171852 10.0266C0.372324 4.6602 4.66057 0.371953 10.0269 0.00179687ZM9.34412 9.34375V1.52285C5.33484 2.14322 2.14404 5.33447 1.52322 9.34375H9.34412Z" fill="#079211"></path></g><defs><clipPath id="clip0"><rect width="23" height="23" fill="white" transform="matrix(-1 0 0 1 23 0)"></rect></clipPath></defs></svg>