<svg xmlns:xlink="http://www.w3.org/1999/xlink" xmlns="http://www.w3.org/2000/svg" width="36" height="36" viewBox="0 0 36 36" fill="none"><path d="M34.9211 20.0871C35.6191 19.1819 36 18 36 16.5563C35.9999 13.9074 33.7449 11.4537 30.8864 11.4537H25.954C26.5671 10.2325 27.4091 8.71777 27.4091 6.54469C27.4091 2.43788 25.7708 0 21.5796 0C19.4706 0 18.6879 2.66611 18.2869 4.72697C18.0474 5.95821 17.8211 7.12125 17.125 7.81727C15.4678 9.47461 12.9375 13.5 11.4175 14.3174C11.2636 14.3822 11.0669 14.4333 10.8527 14.4737C10.4468 13.8856 9.76859 13.5 9 13.5H2.25C1.00737 13.5 0 14.5074 0 15.75V33.75C0 34.9926 1.00737 36 2.25 36H9C10.2426 36 11.25 34.9926 11.25 33.75V33.1355C13.5348 33.1355 18.3296 36.0005 23.7273 35.999C24.1144 35.9992 26.3746 36.0011 26.611 35.999C30.7793 36 33.0977 33.4757 32.9627 29.6854C34.0263 28.439 34.5475 26.6383 34.2442 24.9671C35.12 23.5942 35.3077 21.6575 34.9211 20.0871ZM2.25 33.75V15.75H9V33.75H2.25ZM32.0637 19.431C33.1875 20.25 33.1875 23.625 31.6695 24.3996C32.6202 25.9999 31.7645 28.1414 30.6137 28.7587C31.1968 32.4529 29.2805 33.7232 26.591 33.7491C26.3581 33.7512 23.9721 33.7491 23.7274 33.7491C18.5996 33.7491 14.2533 30.8855 11.2501 30.8855V16.5674C13.9014 16.5674 16.334 11.7904 18.7161 9.40831C20.8638 7.26061 20.1478 3.68107 21.5797 2.2493C25.1592 2.2493 25.1592 4.74659 25.1592 6.54476C25.1592 9.51117 23.0115 10.8401 23.0115 13.7038H30.8865C32.4847 13.7038 33.743 15.1356 33.7501 16.5674C33.757 17.9992 33.1875 19.125 32.0637 19.431ZM7.3125 30.375C7.3125 31.307 6.55699 32.0625 5.625 32.0625C4.69301 32.0625 3.9375 31.307 3.9375 30.375C3.9375 29.443 4.69301 28.6875 5.625 28.6875C6.55699 28.6875 7.3125 29.443 7.3125 30.375Z" fill="#079211"></path></svg>